<svg data-name="Layer 1" xmlns="http://www.w3.org/2000/svg" viewBox="0 0 500 118.24"><path fill="#fff" class="cls-4" d="M59.89 26.08c-1.68.31-3.34.69-4.99 1.14.77.73 1.81 1.4 2.92 1.19 1.11-.26 1.69-1.35 2.07-2.33m-11.5 5.81c1.11.38 2.49.59 3.47-.2 1.11-.92 1.24-2.49 1.13-3.83-1.9.83-3.48 2.31-4.61 4.03m-6.94 56.1c.36 1.02 1.56 1.72 2.62 1.38 1-.27 1.74-1.29 1.64-2.33.06-1.45-1.59-2.69-2.95-2.1-1.19.42-1.79 1.9-1.31 3.05m9.36-14.04c0-1.97.1-3.95-.24-5.9-.19-1.17-1.09-2-1.7-2.96a22.19 22.19 0 01-3.81-11.52c-.67 2.9-.56 6.1.82 8.79a9.78 9.78 0 002.85 3.22c-1.56.05-3.28-.31-4.35-1.55-1.81-2.11-3.45-4.37-5.38-6.38a12.2 12.2 0 00-1.8-1.57c-.38-.25-.84-.51-1.32-.37-1.09.29-2.14.68-3.19 1.07 3.4 8.06 6.82 16.12 10.23 24.17.11.32.42.48.69.64 1.92 1.08 3.81 2.21 5.73 3.29-.76 2.18-1.57 4.34-2.36 6.52.87-.22 1.74-.41 2.62-.6.52-5.61 1.03-11.23 1.2-16.87m24.04 3.88c-.64-2.29-1.35-4.63-2.73-6.59a5 5 0 00-3.53-2.19c-1.81-.2-3.6.27-5.38.48a21 21 0 01-6.76-.03c-.55 1.44-.85 2.97-1.21 4.46a584.11 584.11 0 00-3.41 16.54c3.88-.44 7.79-.36 11.67-.06 2.05-1.78 4.06-3.59 6-5.48 1.64-1.61 3.31-3.23 4.67-5.1.39-.6.93-1.28.67-2.04m10.52 2.81c.54-1.08-.18-2.19-.69-3.13a40.68 40.68 0 00-5.01-6.6 24.23 24.23 0 01-7.16-12.35c.02 2.25.49 4.5 1.32 6.6a9.23 9.23 0 004.58 5.14 5.72 5.72 0 00-.76 3.12 14.97 14.97 0 002.26 4.18c-1.62 2.19-3.62 4.07-5.53 6a81.6 81.6 0 01-6.66 5.94 4.4 4.4 0 01-2.41 1.01v.27l.11-.21c2.57.29 5.13.63 7.68 1.08 1.35.22 2.67.53 4.02.73a144.2 144.2 0 004.22-5.37c1.48-2.04 3.04-4.08 4.04-6.41m5.06-2.16c-.3.72-.78 1.36-1.2 2.02-1.91 2.78-3.96 5.45-5.96 8.15-.83 1.14-1.7 2.25-2.42 3.47-.34.55-1.03.65-1.6.82 1.72.39 3.41.85 5.11 1.32 1.93.52 3.9.85 5.84 1.36-2.29.18-4.58-.19-6.84-.51-8.06-1.1-16.22-1.77-24.35-1.23-4.43.31-8.87 1-13.09 2.42-3 1.03-5.96 2.38-8.4 4.46a9.48 9.48 0 013.08-6.07c1-.94 2.21-1.61 3.42-2.23-2.06-.74-4.11-1.5-6.16-2.26.83-2.74 1.69-5.48 2.55-8.21l-5.93-14.12c-1.86.86-3.68 1.8-5.54 2.66-.62-1.31-1.32-2.58-1.91-3.9l1.92-.88c0 .53 0 1.13.39 1.55.66.84 2.12.74 2.65-.19.49-.72.25-1.71-.39-2.26.69-.08 1.4-.45 1.61-1.17.45-1.09-.59-2.41-1.75-2.22-.56.05-.99.44-1.27.9-.1-.72-.5-1.46-1.25-1.65-1.03-.36-2.18.57-2.11 1.64-.03.74.57 1.25 1.11 1.65-.61.34-1.22.69-1.84 1.01-.57-1.29-1.16-2.56-1.74-3.84-.65-1.16.08-2.61 1.04-3.35a31.95 31.95 0 016.21-3.52 18.07 18.07 0 014.54-1.39c.88-.1 1.87-.14 2.62.41l4.36 3.03c-.89-2.09-.73-4.47-.07-6.6.53-2.02 1.1-4.1.88-6.2.03-.32-.32-.36-.55-.43-2.48-.62-4.96-1.27-7.43-1.92-.7-.15-1.2-.69-1.64-1.21-.37-.41-.28-1.01-.22-1.51.05-.32.41-.4.66-.51 1.91-.7 3.81-1.43 5.74-2.07 1.48-.49 2.85-1.24 4.27-1.87l-.16-1.06c-.69.37-1.43.73-2.24.74a3.7 3.7 0 01-3.59-2.83 8.63 8.63 0 01.51-5.14c.42.02.91.35.74.83-.46 1.59-.53 3.47.5 4.86.5.69 1.4.83 2.19.7-.58-.62-1.18-1.3-1.29-2.18-.29-2.03.59-4 1.62-5.7.13-.34.68-.38.81-.01.26.37-.05.77-.22 1.1-.76 1.34-1.2 3.01-.71 4.52.22.73.92 1.16 1.65 1.24.13-1.71.68-3.37 1.46-4.88a5.33 5.33 0 01-.59-2.17 4.66 4.66 0 011.28-3.19c.24-.23.48-.59.86-.44.3.25.39.78.06 1.04a3.67 3.67 0 00-.85 3.46c1.04-1.49 2.48-2.62 3.77-3.88a5.65 5.65 0 01-1.1-2.69 4.64 4.64 0 011.79-3.97c.42-.04.64.41.61.78-.32.51-.8.92-.98 1.52a3.83 3.83 0 00.52 3.51c.71-.82 1.46-1.63 1.95-2.61.55-1.06.74-2.25.97-3.42a.7.7 0 01.85-.61c.15.81.09 1.64-.08 2.45a8.73 8.73 0 01-1.43 3.61c-1.05 1.39-2.39 2.53-3.56 3.82-.82.92-1.74 1.77-2.37 2.83a11.3 11.3 0 00-1.45 4.57c.44-.2.87-.43 1.15-.83a14.9 14.9 0 015.03-3.91c-.28-.54-.75-1.32-.05-1.76.7-.04.79.87 1.1 1.33 2.2-.65 4.49-.87 6.7-1.47-.03-.61-.1-1.22-.19-1.83.19-.2.39-.39.59-.57l.45.24c.11.63.18 1.27.22 1.92.51-.14 1.01-.31 1.51-.49a6.43 6.43 0 01.25-3.88 7.59 7.59 0 013.64-3.73c.24-.15.69-.18.68.2.04.63-.58.98-1.03 1.29a5.5 5.5 0 00-2.21 5.29 14.22 14.22 0 002.71-2.93c.44-.58 1.03-1.32 1.86-1.07-.11.92-.68 1.68-1.17 2.43a17.15 17.15 0 01-2.62 3.08 8.03 8.03 0 01-3.65 1.67c-.24 1.54-.84 3.26-2.36 3.95-1.47.77-3.28.35-4.52-.67a4.72 4.72 0 01-2.2 4.34c-1.41.91-3.23.68-4.69 0l-.19.38c.4.23.78.48 1.16.75 1.26-.14 2.61-.22 3.8.29.46.18.62.78.33 1.18-.53.8-1.53 1.04-2.35 1.44a29.27 29.27 0 002.89 4.77c.9 1.17 1.85 2.3 2.7 3.52.89 1.23 1.6 2.61 2.71 3.66a9.08 9.08 0 004.34 2.31c2.29.57 4.68.58 7.03.48 2.95.05 5.91.19 8.84-.18a11.5 11.5 0 013.61-.05 8.76 8.76 0 016.13 4.66c1.11 2.19 1.2 4.72.9 7.12A12.92 12.92 0 0188 68.4c-.25-2.24-.36-4.49-.6-6.72-.17 2.09-.31 4.18-.41 6.27-.03.78-.01 1.58.27 2.32.9 2.51 2.07 4.91 3.04 7.39.08.28.25.58.11.87m27.8-19.36A59.09 59.09 0 0059.12 0a59.12 59.12 0 1059.12 59.12m33.75-30.96c4.9 0 8.17-2.98 8.17-8.71V8.18h-2.21v11.44c0 4.3-2.29 6.49-5.9 6.49s-5.99-2.39-5.99-6.63V8.18h-2.21v11.44c0 5.56 3.3 8.54 8.14 8.54"/><path fill="#fff" class="cls-2" d="M151.99 28.16c4.9 0 8.17-2.98 8.17-8.71V8.18h-2.21v11.44c0 4.3-2.29 6.49-5.9 6.49s-5.99-2.39-5.99-6.63V8.18h-2.21v11.44c0 5.56 3.3 8.54 8.14 8.54z"/><path fill="#fff" class="cls-4" d="M176.49 27.85h2.16V11.72l12.65 16.13h1.77V8.18h-2.16v15.76L178.57 8.18h-2.08v19.67z"/><path fill="#fff" class="cls-2" d="M176.49 27.85h2.16V11.72l12.65 16.13h1.77V8.18h-2.16v15.76L178.57 8.18h-2.08v19.67z"/><path fill="#fff" class="cls-4" d="M210.8 8.18h1.88v19.67h-1.88z"/><path fill="#fff" class="cls-2" d="M210.8 8.18h1.88v19.67h-1.88z"/><path fill="#fff" class="cls-4" d="M236.27 27.99h1.94l8.37-19.81h-2.36l-6.95 16.95-6.92-16.95h-2.45l8.37 19.81z"/><path fill="#fff" class="cls-2" d="M236.27 27.99h1.94l8.37-19.81h-2.36l-6.95 16.95-6.92-16.95h-2.45l8.37 19.81z"/><path fill="#fff" class="cls-4" d="M260.92 27.85h14.25v-2.02h-12.05v-6.89h10.66v-2.02h-10.66v-6.71h11.91V8.18h-14.11v19.67z"/><path fill="#fff" class="cls-2" d="M260.92 27.85h14.25v-2.02h-12.05v-6.89h10.66v-2.02h-10.66v-6.71h11.91V8.18h-14.11v19.67z"/><path fill="#fff" class="cls-4" d="M303.82 14.17c0 2.53-2.08 4.05-4.98 4.05h-5.95v-7.98h5.98c3.13 0 4.95 1.46 4.95 3.88v.06zm2.21-.08v-.06a5.5 5.5 0 00-1.49-3.88c-1.22-1.24-3.13-1.97-5.51-1.97h-8.33v19.67h2.19v-7.64h5.53l5.62 7.64h2.68l-5.95-8.03c3.04-.56 5.26-2.47 5.26-5.73"/><path fill="#fff" class="cls-2" d="M303.82 14.17c0 2.53-2.08 4.05-4.98 4.05h-5.95v-7.98h5.98c3.13 0 4.95 1.46 4.95 3.88v.06zm2.21-.08v-.06a5.5 5.5 0 00-1.49-3.88c-1.22-1.24-3.13-1.97-5.51-1.97h-8.33v19.67h2.19v-7.64h5.53l5.62 7.64h2.68l-5.95-8.03c3.04-.56 5.26-2.47 5.26-5.73z"/><path fill="#fff" class="cls-4" d="M328.71 28.14c3.86 0 6.64-2.19 6.64-5.57v-.06c0-3.01-2-4.61-6.33-5.57-4.28-.93-5.28-1.97-5.28-3.82v-.06c0-1.77 1.61-3.18 4.14-3.18 2 0 3.8.65 5.61 2.14l1.28-1.71c-1.97-1.6-4-2.42-6.83-2.42-3.69 0-6.39 2.28-6.39 5.37v.06c0 3.23 2.06 4.69 6.53 5.68 4.08.87 5.06 1.91 5.06 3.74v.06c0 1.94-1.72 3.35-4.33 3.35s-4.64-.93-6.67-2.78L320.78 25a11.3 11.3 0 007.95 3.15"/><path fill="#fff" class="cls-2" d="M328.71 28.14c3.86 0 6.64-2.19 6.64-5.57v-.06c0-3.01-2-4.61-6.33-5.57-4.28-.93-5.28-1.97-5.28-3.82v-.06c0-1.77 1.61-3.18 4.14-3.18 2 0 3.8.65 5.61 2.14l1.28-1.71c-1.97-1.6-4-2.42-6.83-2.42-3.69 0-6.39 2.28-6.39 5.37v.06c0 3.23 2.06 4.69 6.53 5.68 4.08.87 5.06 1.91 5.06 3.74v.06c0 1.94-1.72 3.35-4.33 3.35s-4.64-.93-6.67-2.78L320.78 25a11.3 11.3 0 007.95 3.15z"/><path fill="#fff" class="cls-4" d="M351.14 8.18h1.88v19.67h-1.88z"/><path fill="#fff" class="cls-2" d="M351.14 8.18h1.88v19.67h-1.88z"/><path fill="#fff" class="cls-4" d="M375 27.85h2.24V10.23h6.56V8.18h-15.36v2.05H375v17.62z"/><path fill="#fff" class="cls-2" d="M375 27.85h2.24V10.23h6.56V8.18h-15.36v2.05H375v17.62z"/><path fill="#fff" class="cls-4" d="M405.15 27.85h2.2v-7.81l8.03-11.86h-2.54l-6.56 9.84-6.51-9.84h-2.65l8.03 11.89v7.78z"/><path fill="#fff" class="cls-2" d="M405.15 27.85h2.2v-7.81l8.03-11.86h-2.54l-6.56 9.84-6.51-9.84h-2.65l8.03 11.89v7.78z"/><path fill="#fff" class="cls-4" d="M466.19 18.07c0 4.47-3.2 8.07-7.7 8.07s-7.76-3.65-7.76-8.12v-.06c0-4.47 3.2-8.07 7.7-8.07s7.76 3.65 7.76 8.12v.06zm2.3-.06s.03-.03 0-.06c0-5.43-4.02-10.12-10.01-10.12s-10.06 4.75-10.06 10.18v.06c0 5.43 4.02 10.12 10 10.12s10.06-4.75 10.06-10.18"/><path fill="#fff" class="cls-2" d="M466.19 18.07c0 4.47-3.2 8.07-7.7 8.07s-7.76-3.65-7.76-8.12v-.06c0-4.47 3.2-8.07 7.7-8.07s7.76 3.65 7.76 8.12v.06zm2.3-.06s.03-.03 0-.06c0-5.43-4.02-10.12-10.01-10.12s-10.06 4.75-10.06 10.18v.06c0 5.43 4.02 10.12 10 10.12s10.06-4.75 10.06-10.18z"/><path fill="#fff" class="cls-4" d="M484.26 27.85h2.2v-8.57h10.57v-2.02h-10.57v-7.03h11.82V8.18h-14.02v19.67z"/><path fill="#fff" class="cls-2" d="M484.26 27.85h2.2v-8.57h10.57v-2.02h-10.57v-7.03h11.82V8.18h-14.02v19.67z"/><path fill="#fff" class="cls-4" d="M198.75 83.09V46.25h13.84v36.47c0 10.5 5.12 15.93 13.57 15.93s13.57-5.25 13.57-15.47V46.25h13.84v36.38c0 19.53-10.69 29.11-27.59 29.11s-27.23-9.67-27.23-28.65m285.52-36.86l-15.28 25.89-15-25.89h-16.18l24.17 39.06v25.42h13.85v-25.7L500 46.23h-15.73zM291 77.55c6.74 0 10.61-3.68 10.61-9.12v-.19c0-6.08-4.13-9.21-10.88-9.21h-13.75v18.52H291zm-27.86-31.32h28.76c8 0 14.2 2.3 18.33 6.54 3.51 3.59 5.39 8.66 5.39 14.74v.18c0 10.41-5.48 16.95-13.48 19.99l15.37 23.03h-16.18l-13.48-20.63h-10.88v20.63h-13.84V46.23zm90.97 31.32c6.74 0 10.61-3.68 10.61-9.12v-.19c0-6.08-4.13-9.21-10.88-9.21h-13.75v18.52h14.02zm-27.86-31.32h28.76c8 0 14.2 2.3 18.33 6.54 3.51 3.59 5.39 8.66 5.39 14.74v.18c0 10.41-5.48 16.95-13.48 19.99l15.37 23.03h-16.18l-13.48-20.63h-10.88v20.63h-13.84V46.23zM157.6 63.59v-.19c0-3.14 2.8-5.64 8.12-5.64s10.64 2.34 16.14 6.19l.39-.65 6.23-10.54a35.99 35.99 0 00-22.58-7.58c-12.9 0-22.09 7.76-22.09 19.5v.18c0 12.85 8.2 16.45 20.92 19.78 10.55 2.77 12.71 4.62 12.71 8.22v.18c0 3.79-3.43 6.1-9.11 6.1-7.17 0-13.08-3.01-18.73-7.77l-6.69 11.32c7.31 6 16.26 9.01 25.15 9.01 13.61 0 23.17-7.21 23.17-20.05v-.19c0-11.27-7.21-15.99-20.02-19.41-10.91-2.86-13.62-4.25-13.62-8.5m244.97 34.54V85.06h25.57V71.88h-25.57V58.85h30.57V46.23h-44.32v64.48h44.32V98.09h-30.57z"/></svg>